Coordinates
version=1
nRows=19
nColumns=36
inDegrees=yes

Units are S.I. units (second, meters, Newtons, ...)
If the header above contains a line with 'inDegrees', this indicates whether rotational values are in degrees (yes) or radians (no).

endheader
time	pelvis_tilt	pelvis_list	pelvis_rotation	pelvis_tx	pelvis_ty	pelvis_tz	hip_flexion_r	hip_adduction_r	hip_rotation_r	knee_angle_r	knee_angle_r_beta	ankle_angle_r	subtalar_angle_r	mtp_angle_r	hip_flexion_l	hip_adduction_l	hip_rotation_l	knee_angle_l	knee_angle_l_beta	ankle_angle_l	subtalar_angle_l	mtp_angle_l	lumbar_extension	lumbar_bending	lumbar_rotation	arm_flex_r	arm_add_r	arm_rot_r	elbow_flex_r	pro_sup_r	arm_flex_l	arm_add_l	arm_rot_l	elbow_flex_l	pro_sup_l
      0.00000000	     -7.76156066	      2.41810508	    -10.26945380	      0.44426276	      1.02377374	     -0.06052729	      2.43563868	      1.43579221	      2.08208382	      0.17528323	      0.00305927	      0.60897860	     -1.13222116	     -6.19343999	      4.82815089	      3.03516505	     -1.92025715	      1.32810669	      0.02317983	      0.33623250	     -0.79842846	     -6.19343999	      3.64561996	     -2.19434109	      0.98840972	    -23.71548604	    -22.40861772	     74.52547082	    148.73087487	     98.14400992	     46.76972495	     -8.11803309	     33.90945439	    114.15446214	     77.10702430
      0.01666670	     -9.60044131	      2.02673189	    -10.79749412	      0.44416631	      1.01600390	     -0.06006695	      4.16395091	      2.38536387	      5.48524246	      0.12428296	      0.00216915	      2.51214770	     -1.15390466	     -6.62757318	      6.02872989	      2.52117563	     -0.29695308	      0.34430000	      0.00600917	      1.93537701	     -0.94187862	     -6.62757318	      4.77217571	     -1.08149297	      0.03344401	    -19.37555688	    -23.30161952	     81.74821095	    148.70277814	    104.04744188	     44.59366041	     -8.38751149	     28.50137736	    119.93725358	     90.94726648
      0.03333330	    -10.06234340	      2.01369075	    -11.55489214	      0.44292688	      1.01962843	     -0.05909440	      4.70885983	      2.71637802	      7.15165100	      0.12278280	      0.00214296	      2.87498129	     -0.76610299	     -6.86869438	      6.39151595	      2.42069356	      0.33378966	      0.21981016	      0.00383641	      1.81040088	     -1.23848874	     -6.86869438	      5.09188495	     -0.80203139	     -0.49947904	    -16.45400674	    -20.87212460	     84.67240488	    148.66145926	    105.44832393	     42.46625292	     -8.85711860	     27.67123455	    122.53347156	     92.40103311
      0.05000000	     -9.80138920	      1.95110462	    -11.73117899	      0.44159546	      1.01506835	     -0.05890507	      4.36767981	      2.80613850	      7.80027060	      0.12243938	      0.00213697	      3.28789651	     -0.38385629	     -7.01658250	      6.09571223	      2.46745579	      0.75477445	      0.18541356	      0.00323608	      2.17233678	     -1.24253872	     -7.01658250	      4.67144465	     -0.86604059	     -0.19361270	    -16.35793061	    -19.25531633	     84.01646400	    148.35879149	    109.93073599	     42.99970466	     -8.18123077	     27.44740659	    123.16460603	     94.97502302
      0.06666670	     -9.33955628	      1.92735680	    -12.17052230	      0.44079594	      1.01517176	     -0.05827987	      3.86482920	      2.82122712	      8.85134653	      0.12404315	      0.00216496	      3.80069734	     -0.20322623	     -7.11684398	      5.59778433	      2.53946307	      0.96760962	      0.18159047	      0.00316935	      2.23217015	     -1.66052690	     -7.11684398	      4.00426571	     -0.86865417	     -0.48191717	    -15.43286320	    -18.43798598	     84.44401598	    148.09463316	    109.11382662	     43.17416755	     -8.44297610	     27.03997503	    123.82072913	     93.30466356
      0.08333330	     -8.74836268	      1.93888542	    -12.63084113	      0.43329904	      1.01588832	     -0.05577753	      3.32456251	      2.74199078	      9.55223166	      0.12576711	      0.00219505	      3.83352329	     -0.10530343	     -7.19139265	      5.13097243	      2.62081675	      0.77559883	      0.17905183	      0.00312504	      2.44316565	     -1.72610556	     -7.19139265	      3.06548215	     -0.98893746	      0.01876436	    -14.88473088	    -17.63677638	     84.09605226	    147.81451517	    105.27874105	     43.86300629	     -8.86439444	     27.50424740	    123.84371508	     90.44772915
      0.10000000	     -8.39995722	      1.96521222	    -12.97192044	      0.43255452	      1.01999571	     -0.05528540	      3.00860110	      2.65543663	      9.93257620	      0.12961213	      0.00226216	      3.69514365	      0.01462147	     -7.27702148	      4.89405118	      2.68527534	      0.77480395	      0.18499619	      0.00322879	      2.30969882	     -1.97183565	     -7.27702148	      2.56035463	     -0.99352698	     -0.34210649	    -13.25034251	    -17.46457631	     83.82010539	    147.70920325	    109.27626406	     43.69812856	     -9.72428489	     26.94848369	    124.59194704	     91.27962663
      0.11666670	     -7.83091434	      1.98207562	    -13.30363838	      0.43175070	      1.02060746	     -0.05490379	      2.47026884	      2.52511379	     10.35871691	      0.13088015	      0.00228429	      3.63698555	      0.08053639	     -7.30829966	      4.43778782	      2.78343890	      0.48088134	      0.19010696	      0.00331799	      2.27123094	     -1.90797865	     -7.30829966	      1.79135539	     -1.00632098	     -0.67219336	    -11.37874356	    -17.76955244	     83.93212608	    147.43045894	    108.32318659	     43.54499444	    -10.52532847	     26.77533902	    125.83250972	     89.94043872
      0.13333330	     -7.38361463	      1.98045633	    -13.54048168	      0.43126458	      1.02106877	     -0.05465665	      2.04222754	      2.41494103	     10.66246698	      0.13227303	      0.00230860	      3.46845137	      0.06475454	     -7.36620003	      4.10333912	      2.86633708	      0.43522688	      0.19663143	      0.00343187	      2.02686790	     -2.23697255	     -7.36620003	      1.14153474	     -1.02821778	     -0.87171370	     -9.85809259	    -18.15857739	     84.58263077	    147.28531360	    106.58422886	     43.47633194	    -11.06974737	     26.67222621	    127.20823963	     87.58897260
      0.15000000	     -6.77543832	      1.89425895	    -13.69892233	      0.43055351	      1.02200683	     -0.05461361	      1.42317707	      2.34432330	     10.72808853	      0.13260469	      0.00231439	      3.43905004	      0.32790191	     -7.38321675	      3.55996045	      2.90797572	      0.24674518	      0.20345432	      0.00355095	      1.85392579	     -2.37067173	     -7.38321675	      0.22846225	     -1.02573642	     -0.43540653	     -9.81432652	    -18.64853241	     84.34684517	    146.99614999	    104.44601988	     44.04886700	    -10.99327127	     26.90218154	    127.30218055	     86.10956343
      0.16666670	     -6.34202985	      1.85238805	    -13.87794859	      0.43009718	      1.02260126	     -0.05445276	      0.98750272	      2.26728982	     10.85034801	      0.13342364	      0.00232868	      3.33043237	      0.43049487	     -7.40524149	      3.20203952	      2.95346338	      0.02798637	      0.21389552	      0.00373318	      1.69079216	     -2.31533454	     -7.40524149	     -0.42933515	     -1.09846499	     -0.48692872	     -8.81309493	    -19.09518234	     85.61122508	    146.96747102	    105.93062896	     44.79439686	    -11.02596255	     26.64940616	    127.94655360	     85.65234919
      0.18333330	     -5.89017512	      1.82107786	    -14.00968112	      0.42928014	      1.02340954	     -0.05451006	      0.53602631	      2.16653714	     10.83685645	      0.13208954	      0.00230540	      3.27395899	      0.66734431	     -7.43202029	      2.83997392	      3.03300287	     -0.06827200	      0.22480679	      0.00392362	      1.59140138	     -2.28178348	     -7.43202029	     -1.17402616	     -1.17416901	      0.14905798	     -9.06666467	    -19.41061382	     85.35436218	    146.78103976	    107.79452593	     45.66179265	    -10.34446731	     26.90751543	    127.78417489	     85.97755510
      0.20000000	     -5.50334570	      1.75643557	    -13.96982856	      0.42338368	      1.02645101	     -0.06071233	      0.17224445	      2.10641170	     10.76837655	      0.13169468	      0.00229851	      3.32491555	      0.72859264	     -7.44725291	      2.55797419	      3.11398269	     -0.00523253	      0.23776818	      0.00414984	      1.40849750	     -2.31727773	     -7.44725291	     -1.86847069	     -1.14078383	     -0.03275742	     -7.70273403	    -19.88952937	     86.36031376	    146.78619711	    106.56973174	     45.99113399	     -9.95918210	     27.17375870	    128.35491295	     85.18847027
      0.21666670	     -5.15627389	      1.67187356	    -14.04640643	      0.42924702	      1.03076823	     -0.05501588	     -0.21567062	      2.10116786	     10.64281576	      0.12981840	      0.00226576	      3.30663812	      0.83670597	     -7.45989083	      2.24795450	      3.12880494	     -0.04197612	      0.24669990	      0.00430573	      1.28345725	     -2.34252310	     -7.45989083	     -2.39370578	     -1.06608209	      0.31924000	     -7.09273204	    -20.34207004	     85.90539410	    146.57172494	    106.94112354	     45.69450731	     -9.76338834	     27.10622277	    129.18053307	     84.81798948
      0.23333330	     -4.83372769	      1.58771514	    -14.08695453	      0.42881789	      1.03108147	     -0.05509565	     -0.60492948	      2.09842940	     10.50638131	      0.12794342	      0.00223303	      3.32743547	      0.97398212	     -7.46322440	      1.93787878	      3.13183898	     -0.00729254	      0.25393706	      0.00443204	      1.08754329	     -2.35541905	     -7.46322440	     -2.91246560	     -1.04436779	      0.60710337	     -6.76702043	    -20.70888042	     85.54594451	    146.41060975	    105.74537305	     45.81104230	     -9.37005546	     27.30678898	    130.26526526	     84.04199265
      0.25000000	     -4.61987524	      1.55244903	    -14.12081123	      0.42776982	      1.02825959	     -0.05498581	     -0.88150201	      2.07825882	     10.32106584	      0.12644837	      0.00220694	      3.33987416	      1.19747487	     -7.47796979	      1.71966880	      3.14431719	     -0.10539256	      0.26710438	      0.00466185	      0.96522942	     -2.27162295	     -7.47796979	     -3.22842077	     -1.12572816	      0.62836569	     -6.33583704	    -20.94790049	     85.63020307	    146.53899543	    107.47506449	     45.99430058	     -9.09523921	     26.78232741	    131.19271801	     83.91765106
      0.26666670	     -4.38830839	      1.49496455	    -14.17740953	      0.42701848	      1.02550795	     -0.05479563	     -1.18375627	      2.06921814	     10.17465276	      0.12546172	      0.00218972	      3.37375235	      1.39142457	     -7.48588960	      1.47291977	      3.12849654	     -0.15154808	      0.28360545	      0.00494985	      0.80139801	     -2.33799805	     -7.48588960	     -3.53491756	     -1.20653481	      0.95734218	     -5.85984449	    -21.23977054	     85.82107689	    146.81108085	    107.43947245	     46.53866339	     -8.26708800	     26.68129635	    130.41392025	     83.93213675
      0.28333330	     -4.18951200	      1.48002270	    -14.16803674	      0.42057953	      1.02564577	     -0.06089673	     -1.39891107	      1.99462001	      9.99510643	      0.12599400	      0.00219901	      3.41106137	      1.57737514	     -7.48833724	      1.32400158	      3.16745818	     -0.33360070	      0.30627648	      0.00534553	      0.66771425	     -2.24616058	     -7.48833724	     -3.89718037	     -1.29565816	      0.87197716	     -4.35952221	    -21.79425581	     86.52334247	    147.32226179	    106.93870774	     47.49061266	     -7.59694961	     26.72142804	    129.43880610	     83.53399238
      0.30000000	     -4.04381836	      1.40105868	    -14.21046253	      0.42624635	      1.02619236	     -0.05483129	     -1.61116120	      2.03517649	      9.90321681	      0.12672432	      0.00221176	      3.34749068	      1.64819904	     -7.48851274	      1.16492934	      3.09741019	     -0.53752031	      0.32549461	      0.00568095	      0.51835729	     -2.21597934	     -7.48851274	     -4.06649725	     -1.27074707	      0.94903144	     -4.08243371	    -21.80984523	     86.47773478	    147.41368682	    107.00133843	     47.55951550	     -7.04274679	     26.58392882	    128.24050855	     83.59370870
